<?xml version="1.0" standalone="no"?>
<!DOCTYPE svg PUBLIC "-//W3C//DTD SVG 20010904//EN"
 "http://www.w3.org/TR/2001/REC-SVG-20010904/DTD/svg10.dtd">
<svg version="1.0" xmlns="http://www.w3.org/2000/svg"
 width="225.000000pt" height="225.000000pt" viewBox="0 0 225.000000 225.000000"
 preserveAspectRatio="xMidYMid meet">

<g transform="translate(0.000000,225.000000) scale(0.100000,-0.100000)"
fill="#000000" stroke="none">
<path d="M725 2239 c-4 -6 18 -47 49 -92 31 -45 56 -85 56 -88 0 -3 -27 -23
-60 -43 -115 -71 -200 -178 -234 -295 -30 -102 -98 -91 590 -91 l607 0 -7 40
c-22 139 -135 291 -268 361 -21 11 -38 23 -38 27 0 4 25 44 56 89 50 73 60
103 35 103 -5 0 -37 -41 -71 -91 -47 -69 -66 -89 -79 -84 -130 51 -342 51
-472 0 -13 -5 -32 15 -79 84 -62 91 -73 101 -85 80z m194 -335 c12 -15 21 -32
21 -39 0 -7 -9 -24 -21 -39 -38 -48 -119 -22 -119 39 0 61 81 87 119 39z m521
6 c41 -41 10 -110 -50 -110 -35 0 -70 34 -70 67 0 32 34 63 70 63 17 0 39 -9
50 -20z"/>
<path d="M227 1522 c-15 -9 -36 -35 -47 -58 -19 -37 -20 -62 -20 -330 0 -262
2 -293 19 -331 43 -95 182 -102 235 -13 14 24 16 70 16 350 l0 322 -39 39
c-34 35 -44 39 -87 39 -29 0 -61 -8 -77 -18z"/>
<path d="M520 1036 c0 -304 4 -515 10 -530 16 -44 65 -66 148 -66 l72 0 0
-166 c0 -194 8 -222 73 -256 66 -33 137 -11 177 55 18 28 20 51 20 200 l0 167
110 0 110 0 0 -174 c0 -163 1 -175 23 -207 60 -90 207 -66 237 39 5 20 10 106
10 190 l0 152 68 0 c86 0 132 22 149 70 9 25 12 175 12 533 l1 497 -610 0
-610 0 0 -504z"/>
<path d="M1859 1501 l-39 -39 0 -322 c0 -280 2 -326 16 -350 53 -89 192 -82
235 13 17 38 19 69 19 322 0 160 -4 296 -10 317 -6 20 -26 50 -46 67 -29 26
-43 31 -86 31 -45 0 -54 -4 -89 -39z"/>
</g>
</svg>
